<svg width="36" height="36" viewBox="0 0 36 36" fill="none" xmlns="http://www.w3.org/2000/svg">
<path d="M18 21C16.75 21 15.6875 20.5625 14.8125 19.6875C13.9375 18.8125 13.5 17.75 13.5 16.5V7.5C13.5 6.25 13.9375 5.1875 14.8125 4.3125C15.6875 3.4375 16.75 3 18 3C19.25 3 20.3125 3.4375 21.1875 4.3125C22.0625 5.1875 22.5 6.25 22.5 7.5V16.5C22.5 17.75 22.0625 18.8125 21.1875 19.6875C20.3125 20.5625 19.25 21 18 21ZM16.5 31.5V26.8875C13.9 26.5375 11.75 25.375 10.05 23.4C8.35 21.425 7.5 19.125 7.5 16.5H10.5C10.5 18.575 11.2313 20.3438 12.6938 21.8063C14.1562 23.2688 15.925 24 18 24C20.075 24 21.8438 23.2688 23.3063 21.8063C24.7688 20.3438 25.5 18.575 25.5 16.5H28.5C28.5 19.125 27.65 21.425 25.95 23.4C24.25 25.375 22.1 26.5375 19.5 26.8875V31.5H16.5Z" fill="#1D1B20"/>
</svg>
